# xmcd
#
# Track frame offsets:
# 150
# 15818
# 30376
# 43062
# 61670
# 77326
# 93416
# 108212
# 120464
# 137615
# 151025
# 165522
# 180475
# 199010
# 214617
# 229661
#
# Disc length: 3248 seconds
#
#
# Revision: 0
# Processed by: cddbd v1.5.1PL0 Copyright (c) Steve Scherf et al.
# Submitted via: FreeRIP 2.942 
#
DISCID=ab0cae10
DTITLE=Alma Serrana - as melhores alma serrana
DYEAR=2005
DGENRE=Gaúcho
TTITLE0=Balangando as tetas
TTITLE1=Chico porteiro (roda morena)
TTITLE2=Vamo namorá
TTITLE3=Vem serranear
TTITLE4=Vem morena
TTITLE5=Separação
TTITLE6=Cara metade
TTITLE7=No embalo da vanera
TTITLE8=Serrana mania
TTITLE9=Bailanta do povoado
TTITLE10=Roda morena
TTITLE11=Dança serrana
TTITLE12=Nossa história
TTITLE13=Parceiro da madrugada
TTITLE14=Nossa vaneira
TTITLE15=Aguenta coração
EXTD=by Pepinho
EXTT0=
EXTT1=
EXTT2=
EXTT3=
EXTT4=
EXTT5=
EXTT6=
EXTT7=
EXTT8=
EXTT9=
EXTT10=
EXTT11=
EXTT12=
EXTT13=
EXTT14=
EXTT15=
PLAYORDER=
